<?xml version="1.0" encoding="iso-8859-1"?>
<!-- Generator: Adobe Illustrator 19.0.0, SVG Export Plug-In . SVG Version: 6.00 Build 0)  -->
<svg version="1.1" id="Capa_1" xmlns="http://www.w3.org/2000/svg" xmlns:xlink="http://www.w3.org/1999/xlink" x="0px" y="0px" viewBox="0 0 512 512" style="enable-background:new 0 0 512 512;" xml:space="preserve">
<g>
	<path style="fill:#c6c6c6;" d="M195.765,225.882c-16.64,0-30.118-13.478-30.118-30.118v-15.059
		c0-16.64,13.478-30.118,30.118-30.118s30.118,13.478,30.118,30.118v15.059C225.882,212.405,212.405,225.882,195.765,225.882z"/>
	<path style="fill:#c6c6c6;" d="M316.235,225.882c-16.64,0-30.118-13.478-30.118-30.118v-15.059
		c0-16.64,13.478-30.118,30.118-30.118s30.118,13.478,30.118,30.118v15.059C346.353,212.405,332.875,225.882,316.235,225.882z"/>
</g>
<path style="fill:#c6c6c6;" d="M256,512C114.613,512,0,397.387,0,256S114.613,0,256,0s256,114.613,256,256S397.387,512,256,512z
	 M256,60.235C147.878,60.235,60.235,147.878,60.235,256S147.878,451.765,256,451.765S451.765,364.122,451.765,256
	S364.122,60.235,256,60.235z"/>
<path style="fill:#c6c6c6;" d="M361.412,271.059c0,58.217-47.194,105.412-105.412,105.412s-105.412-47.194-105.412-105.412"/>
<g>
</g>
<g>
</g>
<g>
</g>
<g>
</g>
<g>
</g>
<g>
</g>
<g>
</g>
<g>
</g>
<g>
</g>
<g>
</g>
<g>
</g>
<g>
</g>
<g>
</g>
<g>
</g>
<g>
</g>
</svg>
