<svg xmlns="http://www.w3.org/2000/svg" viewBox="0 0 30.285 30.285"><defs><style>.a{fill:#a2a2a2;}</style></defs><g transform="translate(0 -0.003)"><path class="a" d="M29.612,26.32l-6.243-6.242a12.464,12.464,0,0,0,2.257-7.262,12.586,12.586,0,0,0-1.011-4.978,12.548,12.548,0,0,0-6.825-6.825,12.77,12.77,0,0,0-9.956,0A12.547,12.547,0,0,0,1.01,7.838a12.769,12.769,0,0,0,0,9.955,12.551,12.551,0,0,0,6.825,6.825,12.591,12.591,0,0,0,4.978,1.01,12.465,12.465,0,0,0,7.262-2.257L26.318,29.6a2.162,2.162,0,0,0,1.638.692,2.329,2.329,0,0,0,1.656-3.967ZM18.573,18.576a7.852,7.852,0,0,1-5.76,2.394,7.853,7.853,0,0,1-5.76-2.394,7.852,7.852,0,0,1-2.393-5.76,7.853,7.853,0,0,1,2.393-5.76,7.852,7.852,0,0,1,5.76-2.393,7.854,7.854,0,0,1,5.76,2.393,7.851,7.851,0,0,1,2.394,5.76A7.852,7.852,0,0,1,18.573,18.576Z" transform="translate(0)"/></g></svg>