<svg xmlns="http://www.w3.org/2000/svg" viewBox="0 0 51.035 62.773"><defs><style>.a{fill:#a7a7a7;}</style></defs><g transform="translate(-45.7)"><g transform="translate(45.7)"><path class="a" d="M50.3,62.773h41.84a4.609,4.609,0,0,0,4.6-4.6v-25a4.609,4.609,0,0,0-4.6-4.6H88.9V17.684a17.684,17.684,0,1,0-35.368,0v10.89H50.3a4.609,4.609,0,0,0-4.6,4.6v25A4.609,4.609,0,0,0,50.3,62.773ZM56.68,17.684a14.537,14.537,0,1,1,29.075,0v10.89H56.68ZM48.846,33.172A1.458,1.458,0,0,1,50.3,31.72h41.84a1.458,1.458,0,0,1,1.451,1.451v25a1.458,1.458,0,0,1-1.451,1.451H50.3a1.458,1.458,0,0,1-1.451-1.451Z" transform="translate(-45.7)"/><path class="a" d="M200.908,318.517a6.408,6.408,0,1,0-6.408-6.408A6.418,6.418,0,0,0,200.908,318.517Zm0-9.657a3.262,3.262,0,1,1-3.262,3.262A3.267,3.267,0,0,1,200.908,308.859Z" transform="translate(-175.391 -266.441)"/></g></g></svg>