<svg xmlns="http://www.w3.org/2000/svg" viewBox="0 0 48.781 52.534"><defs><style>.a{fill:#8d81b1;}</style></defs><g transform="translate(-23.41 170)"><g transform="translate(23.41 -170)"><path class="a" d="M58.66,10.878H57.6V1.255A1.255,1.255,0,0,0,56.34,0H27.261a1.255,1.255,0,0,0-1.255,1.255v9.622H24.941a7.54,7.54,0,0,0-7.531,7.531V33.959a7.54,7.54,0,0,0,7.531,7.531h1.065v9.789a1.255,1.255,0,0,0,1.255,1.255H56.341A1.255,1.255,0,0,0,57.6,51.279V41.49H58.66a7.54,7.54,0,0,0,7.531-7.531V18.409A7.54,7.54,0,0,0,58.66,10.878ZM28.517,2.511H55.085v8.367H28.517ZM55.085,50.024H28.517V34.543H55.085Zm8.6-16.066A5.026,5.026,0,0,1,58.66,38.98H57.6V34.543h2.715a1.255,1.255,0,0,0,0-2.511H23.663a1.255,1.255,0,1,0,0,2.511h2.343V38.98H24.941a5.027,5.027,0,0,1-5.021-5.021V18.409a5.027,5.027,0,0,1,5.021-5.021H58.66a5.027,5.027,0,0,1,5.021,5.021V33.959Z" transform="translate(-17.41 0)"/><path class="a" d="M364.4,170.646a1.713,1.713,0,1,0,1.713,1.713A1.714,1.714,0,0,0,364.4,170.646Z" transform="translate(-325.472 -152.252)"/><path class="a" d="M137.227,339.954h20.711a1.255,1.255,0,1,0,0-2.511H137.227a1.255,1.255,0,1,0,0,2.511Z" transform="translate(-123.192 -301.07)"/><path class="a" d="M137.227,383.146h20.711a1.255,1.255,0,1,0,0-2.511H137.227a1.255,1.255,0,1,0,0,2.511Z" transform="translate(-123.192 -339.607)"/></g></g></svg>