<svg xmlns="http://www.w3.org/2000/svg" viewBox="0 0 24.186 23.129"><defs><style>.a{fill:#ed8a19;}</style></defs><path class="a" d="M13.261,1.773,15.989,7.3a1.3,1.3,0,0,0,.981.712l6.1.886a1.3,1.3,0,0,1,.722,2.221l-4.414,4.3A1.3,1.3,0,0,0,19,16.575l1.042,6.075a1.3,1.3,0,0,1-1.89,1.373L12.7,21.156a1.3,1.3,0,0,0-1.212,0L6.032,24.024a1.3,1.3,0,0,1-1.89-1.373l1.042-6.075a1.3,1.3,0,0,0-.374-1.153L.4,11.12A1.3,1.3,0,0,1,1.117,8.9l6.1-.886A1.3,1.3,0,0,0,8.2,7.3l2.728-5.527A1.3,1.3,0,0,1,13.261,1.773Z" transform="translate(0 -1.047)"/></svg>