<svg xmlns="http://www.w3.org/2000/svg" viewBox="0 0 70.273 53.479"><defs><style>.a{opacity:0.34;}</style></defs><g class="a" transform="translate(0 -57.75)"><g transform="translate(0 57.75)"><path d="M61.695,57.75H8.593A8.6,8.6,0,0,0,0,66.343v36.293a8.6,8.6,0,0,0,8.593,8.593H61.68a8.6,8.6,0,0,0,8.593-8.593V66.358A8.591,8.591,0,0,0,61.695,57.75Zm4.667,44.886a4.673,4.673,0,0,1-4.667,4.667H8.593a4.673,4.673,0,0,1-4.667-4.667V66.358A4.673,4.673,0,0,1,8.593,61.69H61.68a4.673,4.673,0,0,1,4.667,4.667v36.278Z" transform="translate(0 -57.75)"/><path d="M91.965,127.754l17.187-15.413a1.966,1.966,0,1,0-2.632-2.923l-23.7,21.273L78.2,126.561c-.015-.015-.029-.029-.029-.044a2.907,2.907,0,0,0-.32-.276L59.031,109.4a1.967,1.967,0,0,0-2.617,2.937L73.8,127.884,56.486,144.1a1.971,1.971,0,0,0-.087,2.777,2.008,2.008,0,0,0,1.439.625,1.967,1.967,0,0,0,1.338-.523l17.579-16.445,4.769,4.26a1.958,1.958,0,0,0,2.617-.015l4.9-4.391L106.52,146.99a1.968,1.968,0,0,0,2.777-.073,1.971,1.971,0,0,0-.073-2.777Z" transform="translate(-47.646 -101.465)"/></g></g></svg>