<svg xmlns="http://www.w3.org/2000/svg" viewBox="0 0 47.958 45.864"><defs><style>.a{fill:#ed8a19;}</style></defs><path class="a" d="M26.295,2.487,31.7,13.447a2.582,2.582,0,0,0,1.945,1.413l12.1,1.758a2.582,2.582,0,0,1,1.432,4.4l-8.752,8.531a2.583,2.583,0,0,0-.742,2.286l2.066,12.046A2.583,2.583,0,0,1,36,46.608L25.181,40.921a2.586,2.586,0,0,0-2.4,0L11.959,46.608a2.583,2.583,0,0,1-3.747-2.723l2.066-12.046a2.583,2.583,0,0,0-.742-2.286L.783,21.021a2.582,2.582,0,0,1,1.432-4.4l12.1-1.758a2.582,2.582,0,0,0,1.945-1.413l5.409-10.96A2.582,2.582,0,0,1,26.295,2.487Z" transform="translate(-0.001 -1.047)"/></svg>