<svg xmlns="http://www.w3.org/2000/svg" viewBox="0 0 69.737 69.737"><defs><style>.a{fill:#acacac;}</style></defs><path class="a" d="M34.868,0A34.868,34.868,0,1,0,69.737,34.868,34.909,34.909,0,0,0,34.868,0Zm10.9,30.51a6.522,6.522,0,0,1-2.179-12.675v-2.58a2.179,2.179,0,1,1,4.359,0v2.179h2.179a2.179,2.179,0,0,1,0,4.359H45.765a2.179,2.179,0,1,0,0,4.359,6.522,6.522,0,0,1,2.179,12.675v2.58a2.179,2.179,0,0,1-4.359,0V39.227H41.406a2.179,2.179,0,0,1,0-4.359h4.359a2.179,2.179,0,1,0,0-4.359Zm-21.793,0a6.522,6.522,0,0,1-2.179-12.675v-2.58a2.179,2.179,0,1,1,4.359,0v2.179h2.179a2.179,2.179,0,0,1,0,4.359H23.972a2.179,2.179,0,0,0,0,4.359,6.522,6.522,0,0,1,2.179,12.675v2.58a2.179,2.179,0,0,1-4.359,0V39.227H19.613a2.179,2.179,0,1,1,0-4.359h4.359a2.179,2.179,0,1,0,0-4.359Zm10.9,30.51A26.209,26.209,0,0,1,9.715,42a2.18,2.18,0,0,1,4.2-1.181,21.783,21.783,0,0,0,41.916,0,2.18,2.18,0,0,1,4.2,1.181A26.217,26.217,0,0,1,34.868,61.02Z"/></svg>