<svg xmlns="http://www.w3.org/2000/svg" viewBox="0 0 70.093 70.093"><defs><style>.a{fill:#acacac;}</style></defs><path class="a" d="M35.046,0A35.046,35.046,0,1,0,70.093,35.046,35.087,35.087,0,0,0,35.046,0Zm11.39,17.523a7.715,7.715,0,0,1,3.943,1.1,7.727,7.727,0,0,1,3.943-1.1,6.764,6.764,0,0,1,7.009,6.659c0,3.991-4.714,7.425-9.809,10.545a2.2,2.2,0,0,1-2.3-.013c-4.74-2.957-9.791-6.457-9.791-10.531A6.764,6.764,0,0,1,46.436,17.523Zm-28.475,0a7.715,7.715,0,0,1,3.943,1.1,7.715,7.715,0,0,1,3.943-1.1,6.767,6.767,0,0,1,7.009,6.659c0,3.991-4.714,7.425-9.809,10.54a2.185,2.185,0,0,1-2.3-.009c-4.736-2.961-9.791-6.462-9.791-10.531A6.767,6.767,0,0,1,17.961,17.523Zm42.367,24.69a26.275,26.275,0,0,1-50.563,0,2.192,2.192,0,0,1,2.107-2.786H58.221a2.183,2.183,0,0,1,1.744.867A2.207,2.207,0,0,1,60.328,42.213Z"/></svg>