<svg xmlns="http://www.w3.org/2000/svg" viewBox="0 0 70.094 70.094"><defs><style>.a{fill:#acacac;}</style></defs><g transform="translate(17.524 21.904)"><path class="a" d="M132.381,160a4.381,4.381,0,1,0,4.381,4.381A4.382,4.382,0,0,0,132.381,160Z" transform="translate(-128 -160)"/></g><g transform="translate(43.809 21.904)"><path class="a" d="M324.381,160a4.381,4.381,0,1,0,4.381,4.381A4.385,4.385,0,0,0,324.381,160Z" transform="translate(-320 -160)"/></g><path class="a" d="M35.047,0A35.047,35.047,0,1,0,70.094,35.047,35.088,35.088,0,0,0,35.047,0Zm-21.9,26.285A8.762,8.762,0,1,1,21.9,35.047,8.771,8.771,0,0,1,13.143,26.285Zm21.9,35.047A10.952,10.952,0,1,1,46,50.38,10.965,10.965,0,0,1,35.047,61.332ZM48.19,35.047a8.762,8.762,0,1,1,8.762-8.762A8.771,8.771,0,0,1,48.19,35.047Z"/></svg>