<svg xmlns="http://www.w3.org/2000/svg" xmlns:xlink="http://www.w3.org/1999/xlink" viewBox="0 0 70.094 70.094"><defs><style>.a{fill:url(#a);}</style><linearGradient id="a" x1="0.5" x2="0.5" y2="1" gradientUnits="objectBoundingBox"><stop offset="0" stop-color="#d54040"/><stop offset="1" stop-color="#8b7694"/></linearGradient></defs><g transform="translate(-2)"><g transform="translate(2)"><path class="a" d="M35.047,0A35.047,35.047,0,1,0,70.094,35.047,35.088,35.088,0,0,0,35.047,0ZM48.19,21.9a4.381,4.381,0,1,1-4.381,4.381A4.388,4.388,0,0,1,48.19,21.9ZM21.9,21.9a4.381,4.381,0,1,1-4.381,4.381A4.388,4.388,0,0,1,21.9,21.9ZM35.047,61.332A26.343,26.343,0,0,1,9.765,42.214a2.192,2.192,0,0,1,2.107-2.786h46.35a2.183,2.183,0,0,1,1.744.867,2.207,2.207,0,0,1,.364,1.919A26.343,26.343,0,0,1,35.047,61.332Z"/></g></g></svg>