<svg xmlns="http://www.w3.org/2000/svg" xmlns:xlink="http://www.w3.org/1999/xlink" viewBox="0 0 70.094 70.094"><defs><style>.a,.c{fill:#e86363;}.a{stroke:#707070;}.b{clip-path:url(#a);}</style><clipPath id="a"><rect class="a" width="70.094" height="70.094" transform="translate(535 401)"/></clipPath></defs><g class="b" transform="translate(-535 -401)"><g transform="translate(543.762 401)"><g transform="translate(0 0)"><path class="c" d="M57.8,41.039c-.8-10.454-5.67-17-9.964-22.786-3.976-5.352-7.41-9.973-7.41-16.791a1.462,1.462,0,0,0-.793-1.3,1.447,1.447,0,0,0-1.517.111A37.139,37.139,0,0,0,24.4,20.087,64.671,64.671,0,0,0,22.9,34.9c-5.955-1.272-7.3-10.18-7.319-10.277A1.46,1.46,0,0,0,13.5,23.512c-.312.151-7.665,3.887-8.093,18.8-.03.5-.031.994-.031,1.492A26.315,26.315,0,0,0,31.66,70.092a.2.2,0,0,0,.058,0h.018A26.315,26.315,0,0,0,57.946,43.808C57.946,43.08,57.8,41.039,57.8,41.039ZM31.66,67.172c-4.832,0-8.762-4.187-8.762-9.333,0-.175,0-.352.011-.569a11.838,11.838,0,0,1,.923-4.637c.847,1.82,2.362,3.492,4.822,3.492a1.459,1.459,0,0,0,1.46-1.46,29.211,29.211,0,0,1,.56-6.642,14.121,14.121,0,0,1,2.956-5.6,18.816,18.816,0,0,0,3.01,5.523c1.69,2.4,3.437,4.884,3.743,9.118.018.251.037.5.037.774C40.422,62.985,36.492,67.172,31.66,67.172Z" transform="translate(-5.375 0)"/></g></g></g></svg>