<svg xmlns="http://www.w3.org/2000/svg" xmlns:xlink="http://www.w3.org/1999/xlink" viewBox="0 0 70.094 70.094"><defs><style>.a{fill:url(#a);}</style><linearGradient id="a" x1="0.5" x2="0.5" y2="1" gradientUnits="objectBoundingBox"><stop offset="0" stop-color="#1f718f"/><stop offset="1" stop-color="#226156"/></linearGradient></defs><g transform="translate(1.06)"><path class="a" d="M41.731,0A35.082,35.082,0,0,0,7.744,26.645a2.12,2.12,0,0,1,1.13-.359h8.985a10.95,10.95,0,0,1,21.458,0H44.14a10.952,10.952,0,0,1,21.462,0h8.985a2.12,2.12,0,0,1,1.13.359A35.082,35.082,0,0,0,41.731,0Z" transform="translate(-7.744 0)"/></g><g transform="translate(0 29.737)"><path class="a" d="M69.647,217.216a2.153,2.153,0,0,1-1.744.929H58.919a10.95,10.95,0,0,1-21.458,0H32.633a10.95,10.95,0,0,1-21.458,0H2.19a2.153,2.153,0,0,1-1.744-.929,35.028,35.028,0,1,0,69.647,5.31A34.775,34.775,0,0,0,69.647,217.216Zm-22.211,17.7a17.52,17.52,0,0,1-24.783,0,2.19,2.19,0,1,1,3.1-3.1,13.463,13.463,0,0,0,18.588,0,2.19,2.19,0,0,1,3.1,3.1Z" transform="translate(0 -217.216)"/></g></svg>