<svg xmlns="http://www.w3.org/2000/svg" xmlns:xlink="http://www.w3.org/1999/xlink" viewBox="0 0 70.094 70.094"><defs><style>.a{fill:url(#a);}</style><linearGradient id="a" x1="0.5" x2="0.5" y2="1" gradientUnits="objectBoundingBox"><stop offset="0" stop-color="#eb8f8f"/><stop offset="1" stop-color="#c46a2f"/></linearGradient></defs><path class="a" d="M35.047,0A35.047,35.047,0,1,0,70.094,35.047,35.088,35.088,0,0,0,35.047,0ZM15.333,26.285A6.571,6.571,0,1,1,21.9,32.857,6.579,6.579,0,0,1,15.333,26.285Zm35.2,24.248a21.9,21.9,0,0,1-30.977,0,2.19,2.19,0,0,1,3.1-3.1,17.938,17.938,0,0,0,24.783,0,2.19,2.19,0,0,1,3.1,3.1ZM48.19,32.857a6.571,6.571,0,1,1,6.571-6.571A6.579,6.579,0,0,1,48.19,32.857Z"/></svg>